. 
  
http://www.torrenting.com/        :     Greatest Movie Tracker on The Net!!!
 
http://www.Torrenting.com          :     Once & For all ;)


               www . Torrenting . Com 

(((((((((((((= Enjoy No RAR releases =))))))))))))))))))))


...................................NFO:....................................

.[img]http://img215.imageshack.us/img215/365/whitelx.png[/img]


[color=blue][size=5][b]White.Irish.Drinkers.2010.BDRip.XVID.AC3.HQ.Hive-CM8[/b][/size][/color]


[b]Thx Hive


CM8 Doing It Right The First Time :D


Source Bluray

Video: 720x304 @bitrate 1800 2pass
Audio: English DTS to AC3 5.1 @448
Sample: yes included[/b]


[url]http://www.imdb.com/title/tt1550524/[/url]


General
Complete name                    : White.Irish.Drinkers.2010.BDRip.XVID.AC3.HQ.Hive-CM8.avi
Format                           : AVI
Format/Info                      : Audio Video Interleave
File size                        : 1.72 GiB
Duration                         : 1h 49mn
Overall bit rate                 : 2 247 Kbps
Writing application              : Nandub v1.0rc2
Writing library                  : Nandub build 1853/release

Video
ID                               : 0
Format                           : MPEG-4 Visual
Format profile                   : Advanced Simple@L5
Format settings, BVOP            : 1
Format settings, QPel            : Yes
Format settings, GMC             : No warppoints
Format settings, Matrix          : Default (H.263)
Muxing mode                      : Packed bitstream
Codec ID                         : XVID
Codec ID/Hint                    : XviD
Duration                         : 1h 49mn
Bit rate                         : 1 790 Kbps
Width                            : 720 pixels
Height                           : 304 pixels
Display aspect ratio             : 2.35:1
Frame rate                       : 23.976 fps
Color space                      : YUV
Chroma subsampling               : 4:2:0
Bit depth                        : 8 bits
Scan type                        : Progressive
Compression mode                 : Lossy
Bits/(Pixel*Frame)               : 0.341
Stream size                      : 1.37 GiB (80%)
Writing library                  : XviD 1.2.1 (UTC 2008-12-04)

Audio
ID                               : 1
Format                           : AC-3
Format/Info                      : Audio Coding 3
Mode extension                   : CM (complete main)
Codec ID                         : 2000
Duration                         : 1h 49mn
Bit rate mode                    : Constant
Bit rate                         : 448 Kbps
Channel(s)                       : 6 channels
Channel positions                : Front: L C R, Side: L R, LFE
Sampling rate                    : 48.0 KHz
Bit depth                        : 16 bits
Compression mode                 : Lossy
Stream size                      : 352 MiB (20%)
Alignment                        : Split accross interleaves
Interleave, duration             : 42 ms (1.00 video frame)
Interleave, preload duration     : 500 ms


Nick Thurston    ...     Brian Leary
Geoffrey Wigdor  ...     Danny Leary
Karen Allen      ...     Margaret
Stephen Lang     ...     Patrick
Peter Riegert    ...     Whitey


Brooklyn, 1975: two brothers looking for a way out of their
working-class neighborhood make a pact to rob a local
theater on the night of a Rolling Stones concert. 


[img]http://img829.imageshack.us/img829/8361/whwhwwhhwh.png[/img]
[img]http://img231.imageshack.us/img231/6357/whwhwwhhwhwh.png[/img]
[img]http://img651.imageshack.us/img651/8194/whwhwwhhwhwhwh.png[/img]
[img]http://img196.imageshack.us/img196/7475/whwhwwhhwhwwhhwh.png[/img]
[img]http://img832.imageshack.us/img832/9092/whwhwwhhwhwwwhhhwh.png[/img]
[img]http://img39.imageshack.us/img39/7876/74103850.png[/img]
[img]http://img713.imageshack.us/img713/5361/whwh.png[/img]
[img]http://img692.imageshack.us/img692/8661/whwhwh.png[/img]
[img]http://img694.imageshack.us/img694/4830/whwhwhwh.png[/img]



Greetz

ViSiON,SANTi,MAGNET,THC,T0XiC,LKRG,IMAGiNE,WBZ,FLAWL3SS,NOVA
D2U,Vik,Rapeseed,SAFC,goldadvance,MEMORY100,KaN1vE,Unevano,
Pinnz,Wayne,Mr Hive and all P2P groups 
Great Work Guys :D

FYS

CM8@hushmail.com